<mxfile host="app.diagrams.net" modified="2024-07-02T20:37:41.942Z" agent="Mozilla/5.0 (Windows NT 10.0; Win64; x64) AppleWebKit/537.36 (KHTML, like Gecko) Chrome/126.0.0.0 Safari/537.36" etag="PvMieDoDSccum5lnbzUE" version="24.6.4" type="device">
  <diagram name="PÃ¡gina-1" id="3PB0Rdwpn6dZCLARWxnY">
    <mxGraphModel dx="789" dy="779" grid="1" gridSize="10" guides="1" tooltips="1" connect="1" arrows="1" fold="1" page="1" pageScale="1" pageWidth="827" pageHeight="1169" math="0" shadow="0">
      <root>
        <mxCell id="0" />
        <mxCell id="1" parent="0" />
        <mxCell id="-FKc9MmJ-mM_poQLuHrt-10" value="" style="edgeStyle=orthogonalEdgeStyle;rounded=0;orthogonalLoop=1;jettySize=auto;html=1;" edge="1" parent="1" source="-FKc9MmJ-mM_poQLuHrt-1" target="-FKc9MmJ-mM_poQLuHrt-8">
          <mxGeometry relative="1" as="geometry" />
        </mxCell>
        <mxCell id="-FKc9MmJ-mM_poQLuHrt-1" value="MEDICO" style="whiteSpace=wrap;html=1;align=center;" vertex="1" parent="1">
          <mxGeometry x="90" y="230" width="100" height="40" as="geometry" />
        </mxCell>
        <mxCell id="-FKc9MmJ-mM_poQLuHrt-11" value="" style="edgeStyle=orthogonalEdgeStyle;rounded=0;orthogonalLoop=1;jettySize=auto;html=1;" edge="1" parent="1" source="-FKc9MmJ-mM_poQLuHrt-2" target="-FKc9MmJ-mM_poQLuHrt-5">
          <mxGeometry relative="1" as="geometry" />
        </mxCell>
        <mxCell id="-FKc9MmJ-mM_poQLuHrt-2" value="" style="shape=rhombus;perimeter=rhombusPerimeter;whiteSpace=wrap;html=1;align=center;" vertex="1" parent="1">
          <mxGeometry x="260" y="220" width="120" height="60" as="geometry" />
        </mxCell>
        <mxCell id="-FKc9MmJ-mM_poQLuHrt-3" value="PACIENTE" style="whiteSpace=wrap;html=1;align=center;" vertex="1" parent="1">
          <mxGeometry x="310" y="460" width="100" height="40" as="geometry" />
        </mxCell>
        <mxCell id="-FKc9MmJ-mM_poQLuHrt-4" value="TELEFONE" style="whiteSpace=wrap;html=1;align=center;" vertex="1" parent="1">
          <mxGeometry x="530" y="470" width="100" height="40" as="geometry" />
        </mxCell>
        <mxCell id="-FKc9MmJ-mM_poQLuHrt-5" value="ESPECIALIDADE" style="whiteSpace=wrap;html=1;align=center;" vertex="1" parent="1">
          <mxGeometry x="460" y="230" width="100" height="40" as="geometry" />
        </mxCell>
        <mxCell id="-FKc9MmJ-mM_poQLuHrt-15" value="" style="edgeStyle=orthogonalEdgeStyle;rounded=0;orthogonalLoop=1;jettySize=auto;html=1;entryX=0.5;entryY=1;entryDx=0;entryDy=0;" edge="1" parent="1" source="-FKc9MmJ-mM_poQLuHrt-6" target="-FKc9MmJ-mM_poQLuHrt-1">
          <mxGeometry relative="1" as="geometry">
            <mxPoint x="140" y="300" as="targetPoint" />
          </mxGeometry>
        </mxCell>
        <mxCell id="-FKc9MmJ-mM_poQLuHrt-6" value="CONSULTA" style="whiteSpace=wrap;html=1;align=center;" vertex="1" parent="1">
          <mxGeometry x="90" y="460" width="100" height="40" as="geometry" />
        </mxCell>
        <mxCell id="-FKc9MmJ-mM_poQLuHrt-8" value="POSSUI" style="text;html=1;align=center;verticalAlign=middle;resizable=0;points=[];autosize=1;strokeColor=none;fillColor=none;" vertex="1" parent="1">
          <mxGeometry x="290" y="235" width="70" height="30" as="geometry" />
        </mxCell>
        <mxCell id="-FKc9MmJ-mM_poQLuHrt-12" value="N" style="text;html=1;align=center;verticalAlign=middle;whiteSpace=wrap;rounded=0;" vertex="1" parent="1">
          <mxGeometry x="170" y="230" width="60" height="30" as="geometry" />
        </mxCell>
        <mxCell id="-FKc9MmJ-mM_poQLuHrt-13" value="M" style="text;html=1;align=center;verticalAlign=middle;whiteSpace=wrap;rounded=0;" vertex="1" parent="1">
          <mxGeometry x="414" y="230" width="60" height="30" as="geometry" />
        </mxCell>
        <mxCell id="-FKc9MmJ-mM_poQLuHrt-16" value="N" style="text;html=1;align=center;verticalAlign=middle;whiteSpace=wrap;rounded=0;" vertex="1" parent="1">
          <mxGeometry x="120" y="440" width="60" height="30" as="geometry" />
        </mxCell>
        <mxCell id="-FKc9MmJ-mM_poQLuHrt-17" value="1" style="text;html=1;align=center;verticalAlign=middle;whiteSpace=wrap;rounded=0;" vertex="1" parent="1">
          <mxGeometry x="120" y="270" width="60" height="30" as="geometry" />
        </mxCell>
        <mxCell id="-FKc9MmJ-mM_poQLuHrt-18" value="ATENDE" style="shape=rhombus;perimeter=rhombusPerimeter;whiteSpace=wrap;html=1;align=center;" vertex="1" parent="1">
          <mxGeometry x="80" y="340" width="120" height="60" as="geometry" />
        </mxCell>
        <mxCell id="-FKc9MmJ-mM_poQLuHrt-24" value="" style="endArrow=none;html=1;rounded=0;" edge="1" parent="1">
          <mxGeometry width="50" height="50" relative="1" as="geometry">
            <mxPoint x="380" y="430" as="sourcePoint" />
            <mxPoint x="430" y="380" as="targetPoint" />
          </mxGeometry>
        </mxCell>
      </root>
    </mxGraphModel>
  </diagram>
</mxfile>
